SplineFontDB: 3.0
FontName: FNCP7-Regular
FullName: FNCP7 Regular
FamilyName: FNCP7
Weight: Regular
Copyright: Copyright (c) 2015, Earnest
UComments: "2015-1-3: Created with FontForge (http://fontforge.org)"
Version: 0.0.0
ItalicAngle: 0
UnderlinePosition: -100
UnderlineWidth: 50
Ascent: 800
Descent: 200
InvalidEm: 0
LayerCount: 2
Layer: 0 0 "Back" 1
Layer: 1 0 "Fore" 0
XUID: [1021 85 1219794769 15648925]
FSType: 0
OS2Version: 0
OS2_WeightWidthSlopeOnly: 0
OS2_UseTypoMetrics: 1
CreationTime: 1420314734
ModificationTime: 1420563076
PfmFamily: 49
TTFWeight: 400
TTFWidth: 5
LineGap: 200
VLineGap: 0
OS2TypoAscent: 800
OS2TypoAOffset: 0
OS2TypoDescent: -220
OS2TypoDOffset: 0
OS2TypoLinegap: 200
OS2WinAscent: 800
OS2WinAOffset: 0
OS2WinDescent: -220
OS2WinDOffset: 0
HheadAscent: 800
HheadAOffset: 0
HheadDescent: -220
HheadDOffset: 0
OS2CapHeight: 0
OS2XHeight: 0
OS2Vendor: 'PfEd'
MarkAttachClasses: 1
DEI: 91125
LangName: 1033
Encoding: UnicodeFull
UnicodeInterp: none
NameList: Adobe Glyph List
DisplaySize: -36
AntiAlias: 1
FitToEm: 1
ExtremaBound: 30
WinInfo: 0 36 12
BeginPrivate: 10
BlueValues 38 [-5 0 240 245 360 365 480 485 660 665]
OtherBlues 11 [-260 -260]
FamilyBlues 38 [-7 0 240 250 360 370 480 490 660 670]
FamilyOtherBlues 11 [-260 -260]
BlueShift 1 1
StdHW 4 [60]
StdVW 4 [60]
StemSnapH 12 [60 128 232]
StemSnapV 8 [60 128]
BlueScale 10 0.04795833
EndPrivate
Grid
0 720 m 0
 500 720 l 1024
  Named: "720 W"
480 800 m 0
 480 -200 l 1024
  Named: "480 W"
420 800 m 0
 420 -200 l 1024
  Named: "420 W"
0 -80 m 0
 500 -80 l 1024
  Named: "-80"
0 -140 m 0
 500 -140 l 1024
  Named: "-140"
0 -260 m 0
 500 -260 l 1024
  Named: "-260"
0 -200 m 0
 500 -200 l 1024
  Named: "-200"
0 660 m 0
 500 660 l 1024
  Named: "660"
0 600 m 0
 500 600 l 1024
  Named: "600"
0 540 m 0
 500 540 l 1024
  Named: "540"
0 480 m 0
 500 480 l 1024
  Named: "480"
0 420 m 0
 500 420 l 1024
  Named: "420"
0 360 m 0
 500 360 l 1024
  Named: "360"
0 300 m 0
 500 300 l 1024
  Named: "300"
0 240 m 0

StartChar: a
Encoding: 97 97 0
Width: 500
VWidth: 0
Flags: W
HStem: 0 65<170.842 330.681> 415 65<170.842 330.681>
VStem: 68 64<106.926 373.074> 368 64<0 39 105.113 374.887 441 480>
LayerCount: 2
Back
Fore
SplineSet
132 181 m 2
 132 117 172 65 220 65 c 0
 280 65 l 0
 328 65 368 117 368 181 c 0
 368 299 l 0
 368 363 328 415 280 415 c 0
 220 415 l 0
 172 415 132 363 132 299 c 0
 132 181 l 2
368 480 m 1
 432 480 l 1
 432 0 l 1
 368 0 l 1
 368 39 l 1
 350 18 312 0 280 0 c 0
 220 0 l 0
 135 0 68 82 68 181 c 0
 68 299 l 0
 68 398 135 480 220 480 c 0
 280 480 l 0
 312 480 350 463 368 441 c 1
 368 480 l 1
EndSplineSet
Validated: 1
EndChar

StartChar: A
Encoding: 65 65 1
Width: 499
VWidth: 0
Flags: W
HStem: 0 21G<67 136.571 365.429 433> 175 65<187 315> 640 20G<213.424 286.576>
DStem2: 67 0 132 0 0.223025 0.974813<14.4966 194.01 260.718 547.939> 282 660 251 520 0.223025 -0.974813<129.56 416.781 483.489 663.003>
LayerCount: 2
Back
Fore
SplineSet
67 0 m 1
 218 660 l 1
 282 660 l 1
 433 0 l 1
 370 0 l 1
 330 175 l 1
 172 175 l 1
 132 0 l 1
 67 0 l 1
187 240 m 1
 315 240 l 1
 251 520 l 1
 187 240 l 1
EndSplineSet
Validated: 1
EndChar

StartChar: plus
Encoding: 43 43 2
Width: 500
VWidth: 0
Flags: W
HStem: 266 65<68 218 282 432> 460 20G<218 282>
VStem: 218 64<116 266 331 480>
LayerCount: 2
Back
Fore
SplineSet
68 266 m 1
 68 331 l 1
 218 331 l 1
 218 480 l 1
 282 480 l 1
 282 331 l 1
 432 331 l 1
 432 266 l 1
 282 266 l 1
 282 116 l 1
 218 116 l 1
 218 266 l 1
 68 266 l 1
EndSplineSet
Validated: 1
EndChar

StartChar: x
Encoding: 120 120 3
Width: 500
VWidth: 0
Flags: W
HStem: 0 21G<65 144.553 356.34 435> 460 20G<65 144.553 356.34 435>
DStem2: 132 480 65 480 0.535052 -0.844819<0 221.962 309.823 532.32> 65 0 132 0 0.535052 0.844819<35.8485 257.811 345.672 568.169>
LayerCount: 2
Back
Fore
SplineSet
65 480 m 1
 132 480 l 1
 250 292 l 1
 369 480 l 1
 435 480 l 1
 283 240 l 1
 435 0 l 1
 369 0 l 1
 250 188 l 1
 132 0 l 1
 65 0 l 1
 217 240 l 1
 65 480 l 1
EndSplineSet
Validated: 1
EndChar

StartChar: B
Encoding: 66 66 4
Width: 500
VWidth: 0
Flags: W
HStem: 0 65<132 338.485> 295 65<132 337.752> 595 65<132 335.756>
VStem: 68 64<65 295 360 595> 368 64<94.9339 264.354 390.248 563.756>
LayerCount: 2
Back
Fore
SplineSet
132 295 m 1
 132 65 l 1
 282 65 l 0
 330 65 368 103 368 151 c 0
 368 209 l 0
 368 257 329 295 280 295 c 0
 132 295 l 1
132 595 m 1
 132 360 l 1
 282 360 l 0
 330 360 368 399 368 448 c 0
 368 508 l 0
 368 557 329 595 280 595 c 0
 132 595 l 1
68 660 m 1
 280 660 l 0
 364 660 432 592 432 508 c 0
 432 448 l 0
 432 399 410 356 374 328 c 1
 411 300 432 257 432 209 c 0
 432 150 l 0
 432 67 364 0 280 0 c 0
 68 0 l 1
 68 660 l 1
EndSplineSet
Validated: 1
EndChar

StartChar: period
Encoding: 46 46 5
Width: 500
VWidth: 0
Flags: W
HStem: 0 133<140.388 235.612>
VStem: 122 132<17.3035 115.243>
LayerCount: 2
Back
Fore
SplineSet
188 133 m 0
 224 133 254 102 254 66 c 0
 254 30 224 0 188 0 c 0
 152 0 122 30 122 66 c 0
 122 102 152 133 188 133 c 0
EndSplineSet
Validated: 1
EndChar

StartChar: greater
Encoding: 62 62 6
Width: 499
VWidth: 0
Flags: W
DStem2: 68 545 68 474 0.831001 -0.556271<39.4952 352.347> 68 126 68 55 0.831001 0.556271<0 312.851>
LayerCount: 2
Back
Fore
SplineSet
68 474 m 1
 68 545 l 1
 434 300 l 1
 68 55 l 1
 68 126 l 1
 328 300 l 1
 68 474 l 1
EndSplineSet
Validated: 1
EndChar

StartChar: exclam
Encoding: 33 33 8
Width: 500
VWidth: 0
Flags: W
HStem: 0 133<192.388 287.612> 640 20G<198 282>
VStem: 174 132<17.3035 115.243> 198 84<344.3 660> 208 64<209 524.7>
LayerCount: 2
Back
Fore
SplineSet
208 209 m 1xc8
 198 660 l 1
 282 660 l 1xd0
 272 209 l 1
 208 209 l 1xc8
240 133 m 0
 276 133 306 102 306 66 c 0
 306 30 276 0 240 0 c 0
 204 0 174 30 174 66 c 0xe0
 174 102 204 133 240 133 c 0
EndSplineSet
Validated: 1
EndChar

StartChar: quotedbl
Encoding: 34 34 9
Width: 499
VWidth: 0
Flags: W
HStem: 415 245<107 172 327 392>
VStem: 97 85<488.5 660> 107 65<415 586.5> 317 85<488.5 660> 327 65<415 586.5>
LayerCount: 2
Back
Fore
SplineSet
317 660 m 1x90
 402 660 l 1x90
 392 415 l 1
 327 415 l 1x88
 317 660 l 1x90
97 660 m 1xc0
 182 660 l 1xc0
 172 415 l 1
 107 415 l 1xa0
 97 660 l 1xc0
EndSplineSet
Validated: 1
EndChar

StartChar: numbersign
Encoding: 35 35 10
Width: 464
VWidth: 0
Flags: W
HStem: 0 21G<43 109.455 183 249.371> 175 65<-30 90 309 431> 415 65<33 156 373 496> 640 20G<216.556 284 354.636 422>
DStem2: 43 0 104 0 0.263117 0.964764<16.0502 181.2 248.646 430.109 497.292 683.842> 183 0 244 0 0.260393 0.965503<15.884 197.085 264.53 445.732 512.916 683.321>
LayerCount: 2
Back
Fore
SplineSet
183 0 m 1
 360 660 l 1
 422 660 l 1
 373 480 l 1
 513 480 l 1
 496 415 l 1
 356 415 l 1
 309 240 l 1
 449 240 l 1
 431 175 l 1
 291 175 l 1
 244 0 l 1
 183 0 l 1
104 0 m 1
 43 0 l 1
 90 175 l 1
 -47 175 l 1
 -30 240 l 1
 108 240 l 1
 156 415 l 1
 16 415 l 1
 33 480 l 1
 173 480 l 1
 222 660 l 1
 284 660 l 1
 104 0 l 1
EndSplineSet
Validated: 1
EndChar

StartChar: dollar
Encoding: 36 36 11
Width: 499
VWidth: 0
Flags: W
HStem: 0 65<162.956 213 278 333.766> 296 65<171.483 213 278 339.756> 595 65<176.829 213 278 337.208>
VStem: 81 65<385.275 563.094> 213 65<-60 0 65 296 361 592 660 720> 371 65<99.5781 265.205>
LayerCount: 2
Back
Fore
SplineSet
129 151 m 2
 139 101 174 65 213 65 c 1
 213 296 l 1
 134 301 81 369 81 448 c 0
 81 508 l 0
 81 586 140 649 213 659 c 1
 213 720 l 1
 278 720 l 1
 278 660 l 1
 294 660 l 0
 370 660 422 594 434 508 c 0
 434 505 l 1
 369 505 l 1
 368 507 l 0
 358 559 334 595 294 595 c 0
 278 595 l 1
 278 361 l 1
 284 361 l 0
 368 361 436 293 436 210 c 0
 436 150 l 0
 436 68 360 3 278 0 c 1
 278 -60 l 1
 213 -60 l 1
 213 0 l 1
 138 0 76 65 64 150 c 0
 63 153 l 1
 129 153 l 1
 129 151 l 2
213 592 m 1
 174 583 146 550 146 508 c 0
 146 448 l 0
 146 403 172 366 213 361 c 1
 213 592 l 1
278 65 m 1
 326 67 371 106 371 151 c 0
 371 209 l 0
 371 257 333 296 284 296 c 0
 278 296 l 1
 278 65 l 1
EndSplineSet
Validated: 1
EndChar

StartChar: percent
Encoding: 37 37 12
Width: 500
VWidth: 0
Flags: W
HStem: 0 65<265.364 355.323> 175 65<265.364 355.323> 415 65<147.188 234.893> 595 65<145.364 235.323>
VStem: 68 65<493.269 582.365> 188 65<78.2652 161.735> 248 65<492.832 582.791> 368 65<77.8482 162.152>
DStem2: 39 220 69 174 0.834318 0.551284<0 469.789>
LayerCount: 2
Back
Fore
SplineSet
39 220 m 1xf9
 434 481 l 1
 462 432 l 1
 69 174 l 1
 39 220 l 1xf9
253 120 m 0xfd
 253 90 279 65 310 65 c 0
 343 65 368 90 368 120 c 0
 368 150 343 175 310 175 c 0
 279 175 253 150 253 120 c 0xfd
188 120 m 0
 188 186 243 240 310 240 c 0
 377 240 433 186 433 120 c 0
 433 54 377 0 310 0 c 0
 243 0 188 54 188 120 c 0
133 538 m 0
 133 506 159 480 190 480 c 0
 223 480 248 506 248 538 c 0xfb
 248 570 223 595 190 595 c 0
 159 595 133 570 133 538 c 0
68 538 m 0
 68 605 123 660 190 660 c 0
 257 660 313 605 313 538 c 0
 313 471 257 415 190 415 c 0
 123 415 68 471 68 538 c 0
EndSplineSet
Validated: 1
EndChar

StartChar: ampersand
Encoding: 38 38 13
Width: 500
VWidth: 0
Flags: W
HStem: 0 65<153.478 308 372 462> 295 65<154.539 288.235 372 462> 595 65<152.621 287.585>
VStem: 38 64<113.91 245.993 412.267 545.209> 308 64<65 295> 338 64<409.893 545.415>
LayerCount: 2
Back
Fore
SplineSet
220 595 m 0xf4
 155 595 102 543 102 478 c 0
 102 414 156 360 220 360 c 0
 285 360 338 413 338 478 c 0
 338 543 285 595 220 595 c 0xf4
462 0 m 1
 220 0 l 0
 120 0 38 81 38 180 c 0
 38 242 69 296 116 328 c 1
 68 361 38 416 38 478 c 0
 38 578 120 660 220 660 c 0
 321 660 402 579 402 478 c 0xf4
 402 433 386 391 360 360 c 1
 462 360 l 1
 462 295 l 1
 372 295 l 1
 372 65 l 1xf8
 462 65 l 1
 462 0 l 1
308 295 m 1xf8
 220 295 l 0
 155 295 102 243 102 180 c 0
 102 117 155 65 220 65 c 0
 308 65 l 1
 308 295 l 1xf8
EndSplineSet
Validated: 1
EndChar

StartChar: quotesingle
Encoding: 39 39 14
Width: 499
VWidth: 0
Flags: W
HStem: 415 245<217 282>
VStem: 207 85<488.5 660> 217 65<415 586.5>
LayerCount: 2
Back
Fore
SplineSet
207 660 m 1xc0
 292 660 l 1xc0
 282 415 l 1
 217 415 l 1xa0
 207 660 l 1xc0
EndSplineSet
Validated: 1
EndChar

StartChar: parenleft
Encoding: 40 40 15
Width: 500
VWidth: 0
Flags: W
HStem: -63 66<260.004 372> 657 66<260.004 372>
VStem: 128 64<93.5273 566.473>
LayerCount: 2
Back
Fore
SplineSet
372 -63 m 1
 310 -63 l 0
 209 -63 128 60 128 210 c 0
 128 450 l 0
 128 600 209 723 310 723 c 0
 372 723 l 1
 372 657 l 1
 310 657 l 0
 247 657 192 566 192 450 c 0
 192 210 l 0
 192 94 247 3 310 3 c 0
 372 3 l 1
 372 -63 l 1
EndSplineSet
Validated: 1
EndChar

StartChar: parenright
Encoding: 41 41 16
Width: 500
VWidth: 0
Flags: W
HStem: -63 66<128 239.996> 657 66<128 239.996>
VStem: 308 64<93.5273 566.473>
LayerCount: 2
Back
Fore
SplineSet
128 -63 m 1
 128 3 l 1
 190 3 l 0
 253 3 308 94 308 210 c 0
 308 450 l 0
 308 566 253 657 190 657 c 0
 128 657 l 1
 128 723 l 1
 190 723 l 0
 291 723 372 600 372 450 c 0
 372 210 l 0
 372 60 291 -63 190 -63 c 0
 128 -63 l 1
EndSplineSet
Validated: 1
EndChar

StartChar: asterisk
Encoding: 42 42 17
Width: 500
VWidth: 0
Flags: W
HStem: 460 20G<218 283>
VStem: 218 65<343 480>
DStem2: 87 385 67 322 0.952255 -0.305303<0.188997 136.805> 118 171 170 132 0.58469 0.811257<0 134.618> 304 281 250 243 0.597665 -0.801746<0 135.204> 283 343 304 281 0.950124 0.311873<0.616493 137.543>
LayerCount: 2
Back
Fore
SplineSet
283 343 m 1
 414 386 l 1
 434 324 l 1
 304 281 l 1
 384 172 l 1
 332 133 l 1
 250 243 l 1
 170 132 l 1
 118 171 l 1
 197 280 l 1
 67 322 l 1
 87 385 l 1
 218 343 l 1
 218 480 l 1
 283 480 l 1
 283 343 l 1
EndSplineSet
Validated: 1
EndChar

StartChar: comma
Encoding: 44 44 18
Width: 500
VWidth: 0
Flags: W
HStem: -107 238<158.152 173>
VStem: 122 133<15.0781 112.135>
LayerCount: 2
Back
Fore
SplineSet
188 131 m 0
 224 131 254 100 255 64 c 1
 255 46 249 24 242 8 c 0
 218 -44 174 -106 174 -106 c 0
 173 -107 l 1
 121 -107 l 1
 158 5 l 1
 136 17 122 39 122 64 c 0
 122 101 152 131 188 131 c 0
EndSplineSet
Validated: 1
EndChar

StartChar: hyphen
Encoding: 45 45 19
Width: 500
VWidth: 0
Flags: W
HStem: 267 66<68 432>
LayerCount: 2
Back
Fore
SplineSet
68 267 m 1
 68 333 l 1
 432 333 l 1
 432 267 l 1
 68 267 l 1
EndSplineSet
Validated: 1
EndChar

StartChar: slash
Encoding: 47 47 20
Width: 500
VWidth: 0
Flags: W
HStem: 0 21G<66 141.152> 640 20G<359.818 434>
DStem2: 66 0 132 0 0.417224 0.908804<27.5368 726.229>
LayerCount: 2
Back
Fore
SplineSet
66 0 m 1
 369 660 l 1
 434 660 l 1
 132 0 l 1
 66 0 l 1
EndSplineSet
Validated: 1
EndChar

StartChar: zero
Encoding: 48 48 21
Width: 500
VWidth: 0
Flags: W
HStem: 0 65<170.842 329.158> 595 65<170.842 329.158>
VStem: 68 64<106.926 174 260 553.074> 368 64<106.926 412>
DStem2: 132 260 133 174 0.702608 0.711577<0 273.975>
LayerCount: 2
Back
Fore
SplineSet
68 181 m 2
 68 479 l 0
 68 578 135 660 220 660 c 0
 280 660 l 0
 365 660 432 578 432 479 c 0
 432 181 l 0
 432 82 365 0 280 0 c 0
 220 0 l 0
 135 0 68 82 68 181 c 2
133 174 m 1
 136 112 173 65 220 65 c 0
 280 65 l 0
 328 65 368 116 368 181 c 0
 368 412 l 1
 133 174 l 1
366 496 m 1
 359 553 324 595 280 595 c 0
 220 595 l 0
 172 595 132 544 132 479 c 0
 132 260 l 1
 366 496 l 1
EndSplineSet
Validated: 1
EndChar

StartChar: one
Encoding: 49 49 22
Width: 500
VWidth: 0
Flags: W
HStem: 0 21G<225 290> 480 21G<109.326 147> 640 20G<206 290>
VStem: 225 65<0 578>
DStem2: 89 523 127 480 0.707107 0.707107<0 135.057>
LayerCount: 2
Back
Fore
SplineSet
89 523 m 1
 226 660 l 1
 290 660 l 1
 290 0 l 1
 225 0 l 1
 225 578 l 1
 127 480 l 1
 89 523 l 1
EndSplineSet
Validated: 1
EndChar

StartChar: two
Encoding: 50 50 23
Width: 500
VWidth: 0
Flags: W
HStem: 0 65<132 432> 595 65<169.333 329.158>
VStem: 68 64<65 161.318 506 509> 368 64<414.989 553.899>
LayerCount: 2
Back
Fore
SplineSet
135 506 m 1
 69 506 l 1
 70 509 l 0
 82 594 144 660 220 660 c 0
 280 660 l 0
 365 660 432 578 432 479 c 0
 432 288 132 259 132 92 c 0
 132 65 l 1
 432 65 l 1
 432 0 l 1
 68 0 l 1
 68 92 l 0
 68 302 368 328 368 478 c 0
 368 543 328 595 280 595 c 0
 220 595 l 0
 180 595 145 559 135 508 c 0
 135 506 l 1
EndSplineSet
Validated: 1
EndChar

StartChar: three
Encoding: 51 51 24
Width: 500
VWidth: 0
Flags: W
HStem: 0 65<163.246 337.485> 295 65<187 336.752> 595 65<160.89 334.895>
VStem: 367 65<94.9339 264.354 390.248 563.756>
LayerCount: 2
Back
Fore
SplineSet
136 122 m 2
 148 89 181 65 219 65 c 0
 281 65 l 0
 329 65 367 103 367 151 c 0
 367 209 l 0
 367 257 328 295 279 295 c 0
 187 295 l 1
 187 360 l 1
 281 360 l 0
 329 360 367 399 367 448 c 0
 367 508 l 0
 367 557 328 595 279 595 c 0
 219 595 l 0
 180 595 148 571 136 537 c 0
 136 535 l 1
 68 535 l 1
 69 538 l 0
 83 608 145 660 219 660 c 0
 279 660 l 0
 363 660 432 592 432 508 c 0
 432 448 l 0
 432 399 410 356 374 328 c 1
 411 300 432 257 432 209 c 0
 432 150 l 0
 432 67 363 0 279 0 c 0
 219 0 l 0
 145 0 83 52 69 121 c 0
 68 124 l 1
 136 124 l 1
 136 122 l 2
EndSplineSet
Validated: 1
EndChar

StartChar: four
Encoding: 52 52 25
Width: 500
VWidth: 0
Flags: W
HStem: 0 21G<368 432> 175 65<140 368> 640 20G<354.735 432>
VStem: 368 64<0 175 240 559>
DStem2: 68 238 140 240 0.580691 0.814124<43.438 435.541>
LayerCount: 2
Back
Fore
SplineSet
368 240 m 1
 368 559 l 1
 140 240 l 1
 368 240 l 1
432 660 m 1
 432 0 l 1
 368 0 l 1
 368 175 l 1
 68 175 l 1
 68 238 l 1
 369 660 l 1
 432 660 l 1
EndSplineSet
Validated: 1
EndChar

StartChar: five
Encoding: 53 53 26
Width: 499
VWidth: 0
Flags: W
HStem: 0 65<163.333 327.728> 386 66<173.634 333.158> 595 65<192 423>
VStem: 371 65<111.623 345.074>
DStem2: 76 327 164 434 0.17446 0.984664<120.712 284.127>
LayerCount: 2
Back
Fore
SplineSet
76 327 m 1
 135 660 l 1
 423 660 l 1
 423 595 l 1
 192 595 l 1
 164 434 l 1
 180 447 193 452 224 452 c 0
 284 452 l 0
 369 452 436 370 436 271 c 0
 436 181 l 0
 436 82 359 0 274 0 c 0
 214 0 l 0
 138 0 76 66 64 151 c 0
 63 154 l 1
 129 154 l 1
 129 152 l 0
 139 101 174 65 214 65 c 0
 274 65 l 0
 322 65 371 117 371 181 c 0
 371 270 l 0
 371 334 332 386 284 386 c 0
 224 386 l 0
 192 386 163 363 148 328 c 0
 148 327 l 1
 76 327 l 1
EndSplineSet
Validated: 1
EndChar

StartChar: six
Encoding: 54 54 27
Width: 500
VWidth: 0
Flags: W
HStem: 0 65<170.842 329.158> 356 66<169.319 329.158> 595 65<170.842 330.667>
VStem: 68 64<106.926 315.887 389 553.074> 368 64<106.926 315.074 506 509>
LayerCount: 2
Back
Fore
SplineSet
365 508 m 2
 355 559 320 595 280 595 c 0
 220 595 l 0
 172 595 132 543 132 478 c 0
 132 389 l 1
 157 411 187 422 220 422 c 0
 280 422 l 0
 365 422 432 340 432 241 c 0
 432 181 l 0
 432 82 365 0 280 0 c 0
 220 0 l 0
 135 0 68 82 68 181 c 0
 68 479 l 0
 68 578 135 660 220 660 c 0
 280 660 l 0
 356 660 418 594 430 509 c 0
 431 506 l 1
 365 506 l 1
 365 508 l 2
132 240 m 2
 132 181 l 0
 132 117 172 65 220 65 c 0
 280 65 l 0
 328 65 368 117 368 181 c 0
 368 240 l 0
 368 304 328 356 280 356 c 0
 220 356 l 0
 172 356 132 304 132 240 c 2
EndSplineSet
Validated: 1
EndChar

StartChar: seven
Encoding: 55 55 28
Width: 500
VWidth: 0
Flags: W
HStem: 0 21G<126 200.074> 595 65<68 366>
DStem2: 126 0 192 0 0.374335 0.927294<24.7061 641.58>
LayerCount: 2
Back
Fore
SplineSet
68 660 m 1
 433 660 l 1
 433 597 l 1
 192 0 l 1
 126 0 l 1
 366 595 l 1
 68 595 l 1
 68 660 l 1
EndSplineSet
Validated: 1
EndChar

StartChar: eight
Encoding: 56 56 29
Width: 500
VWidth: 0
Flags: W
HStem: 0 65<170.842 329.158> 295 65<169.319 330.681> 595 65<170.842 329.158>
VStem: 68 64<105.536 255.325 401.743 553.701> 368 64<105.536 254.956 401.374 553.701>
LayerCount: 2
Back
Fore
SplineSet
432 478 m 0
 432 416 406 361 367 328 c 1
 407 295 432 240 432 180 c 0
 432 82 365 0 280 0 c 0
 220 0 l 0
 135 0 68 82 68 180 c 0
 68 241 94 296 133 328 c 1
 93 362 68 417 68 478 c 0
 68 578 135 660 220 660 c 0
 280 660 l 0
 365 660 432 578 432 478 c 0
368 478 m 0
 368 543 328 595 280 595 c 0
 220 595 l 0
 172 595 132 543 132 478 c 0
 132 413 172 360 220 360 c 0
 280 360 l 0
 328 360 368 413 368 478 c 0
132 180 m 0
 132 116 172 65 220 65 c 0
 280 65 l 0
 328 65 368 116 368 180 c 0
 368 244 328 295 280 295 c 0
 220 295 l 0
 172 295 132 244 132 180 c 0
EndSplineSet
Validated: 1
EndChar

StartChar: nine
Encoding: 57 57 30
Width: 500
VWidth: 0
Flags: W
HStem: 0 65<169.333 329.158> 237 66<170.842 330.681> 595 65<170.842 329.158>
VStem: 68 64<151 153 344.322 552.678> 368 64<106.926 270 342.707 553.074>
LayerCount: 2
Back
Fore
SplineSet
135 151 m 2
 145 101 180 65 220 65 c 0
 280 65 l 0
 328 65 368 117 368 181 c 0
 368 270 l 1
 343 248 313 237 280 237 c 0
 220 237 l 0
 135 237 68 319 68 419 c 0
 68 478 l 0
 68 578 135 660 220 660 c 0
 280 660 l 0
 365 660 432 578 432 479 c 0
 432 181 l 0
 432 82 365 0 280 0 c 0
 220 0 l 0
 144 0 82 66 70 151 c 0
 69 153 l 1
 135 153 l 1
 135 151 l 2
368 419 m 2
 368 479 l 0
 368 544 328 595 280 595 c 0
 220 595 l 0
 172 595 132 544 132 479 c 0
 132 419 l 0
 132 354 172 303 220 303 c 0
 280 303 l 0
 328 303 368 354 368 419 c 2
EndSplineSet
Validated: 1
EndChar

StartChar: colon
Encoding: 58 58 31
Width: 500
VWidth: 0
Flags: W
HStem: 0 133<140.388 235.612> 348 133<140.388 235.612>
VStem: 122 132<17.3035 115.243 365.303 463.243>
LayerCount: 2
Back
Fore
SplineSet
188 481 m 0
 224 481 254 450 254 414 c 0
 254 378 224 348 188 348 c 0
 152 348 122 378 122 414 c 0
 122 450 152 481 188 481 c 0
188 133 m 0
 224 133 254 102 254 66 c 0
 254 30 224 0 188 0 c 0
 152 0 122 30 122 66 c 0
 122 102 152 133 188 133 c 0
EndSplineSet
Validated: 1
EndChar

StartChar: semicolon
Encoding: 59 59 32
Width: 500
VWidth: 0
Flags: W
HStem: 348 133<140.388 236.135>
VStem: 122 133<12.6332 109.612 366.388 462.135>
LayerCount: 2
Back
Fore
SplineSet
188 481 m 0
 224 481 255 450 255 414 c 0
 255 378 224 348 188 348 c 0
 152 348 122 378 122 414 c 0
 122 450 152 481 188 481 c 0
188 128 m 0
 224 128 254 98 255 62 c 1
 255 44 249 20 242 5 c 0
 218 -46 174 -108 174 -108 c 0
 173 -109 l 1
 121 -109 l 1
 158 2 l 1
 136 14 122 37 122 62 c 0
 122 98 152 128 188 128 c 0
EndSplineSet
Validated: 1
EndChar

StartChar: less
Encoding: 60 60 33
Width: 499
VWidth: 0
Flags: W
DStem2: 170 300 65 300 0.831701 -0.555223<0 315.07> 65 300 170 300 0.831701 0.555223<87.3287 402.398>
LayerCount: 2
Back
Fore
SplineSet
432 475 m 1
 170 300 l 1
 432 125 l 1
 432 55 l 1
 65 300 l 1
 432 545 l 1
 432 475 l 1
EndSplineSet
Validated: 1
EndChar

StartChar: equal
Encoding: 61 61 34
Width: 500
VWidth: 0
Flags: W
HStem: 147 66<68 432> 387 66<68 432>
LayerCount: 2
Back
Fore
SplineSet
68 387 m 1
 68 453 l 1
 432 453 l 1
 432 387 l 1
 68 387 l 1
68 147 m 1
 68 213 l 1
 432 213 l 1
 432 147 l 1
 68 147 l 1
EndSplineSet
Validated: 1
EndChar

StartChar: question
Encoding: 63 63 35
Width: 499
VWidth: 0
Flags: W
HStem: 0 133<191.865 287.612> 356 66<278.799 342.267> 595 65<168.745 334.756>
VStem: 173 133<18.3883 114.135> 207 65<209 352.291> 366 65<444.619 564.336>
LayerCount: 2
Back
Fore
SplineSet
134 506 m 1xec
 68 506 l 1
 69 509 l 0
 81 594 144 660 219 660 c 0
 279 660 l 0
 363 660 431 592 431 508 c 0
 431 424 373 356 300 356 c 0
 286 356 272 333 272 300 c 0
 272 209 l 1
 207 209 l 1
 207 300 l 0
 207 366 248 422 300 422 c 0
 336 422 366 459 366 508 c 0
 366 556 328 595 279 595 c 0
 219 595 l 0
 179 595 144 559 134 508 c 0
 134 506 l 1xec
240 133 m 0
 276 133 306 102 306 66 c 0
 306 30 276 0 240 0 c 0
 204 0 173 30 173 66 c 0xf4
 173 102 204 133 240 133 c 0
EndSplineSet
Validated: 1
EndChar

StartChar: at
Encoding: 64 64 36
Width: 500
VWidth: 0
Flags: W
HStem: 0 65<140.842 360.667> 175 65<229.955 390.045> 415 65<229.955 390.153> 595 65<140.842 359.158>
VStem: 38 64<106.926 553.074> 158 64<249.845 404.247> 398 64<148 151 249.845 404.939 467 552.678>
LayerCount: 2
Back
Fore
SplineSet
340 175 m 2
 280 175 l 0
 213 175 158 222 158 282 c 0
 158 372 l 0
 158 432 213 480 280 480 c 0
 340 480 l 0
 361 480 382 475 398 467 c 1
 398 478 l 0
 398 543 358 595 310 595 c 0
 190 595 l 0
 142 595 102 544 102 479 c 0
 102 181 l 0
 102 116 142 65 190 65 c 0
 310 65 l 0
 350 65 385 100 395 149 c 0
 395 151 l 1
 461 151 l 1
 460 148 l 0
 448 64 386 0 310 0 c 0
 190 0 l 0
 105 0 38 82 38 181 c 0
 38 479 l 0
 38 578 105 660 190 660 c 0
 310 660 l 0
 395 660 462 578 462 478 c 0
 462 282 l 0
 462 222 407 175 340 175 c 2
340 240 m 2
 372 240 398 259 398 282 c 0
 398 372 l 0
 398 395 372 415 340 415 c 0
 280 415 l 0
 248 415 222 395 222 372 c 0
 222 282 l 0
 222 259 248 240 280 240 c 0
 340 240 l 2
EndSplineSet
Validated: 1
EndChar

StartChar: C
Encoding: 67 67 37
Width: 499
VWidth: 0
Flags: W
HStem: 0 65<170.842 330.255> 595 65<170.842 330.255>
VStem: 68 64<106.926 553.074>
LayerCount: 2
Back
Fore
SplineSet
364 508 m 2
 354 559 320 595 280 595 c 0
 220 595 l 0
 172 595 132 544 132 479 c 0
 132 181 l 0
 132 116 172 65 220 65 c 0
 280 65 l 0
 320 65 354 101 364 152 c 0
 365 154 l 1
 430 154 l 1
 430 151 l 0
 418 66 355 0 280 0 c 0
 220 0 l 0
 135 0 68 82 68 181 c 0
 68 479 l 0
 68 578 135 660 220 660 c 0
 280 660 l 0
 355 660 418 594 430 509 c 0
 430 506 l 1
 365 506 l 1
 364 508 l 2
EndSplineSet
Validated: 1
EndChar

StartChar: D
Encoding: 68 68 38
Width: 500
VWidth: 0
Flags: W
HStem: 0 65<132 329.158> 595 65<132 329.158>
VStem: 68 64<65 595> 368 64<106.926 553.074>
LayerCount: 2
Back
Fore
SplineSet
132 595 m 1
 132 65 l 1
 280 65 l 0
 328 65 368 116 368 181 c 0
 368 479 l 0
 368 544 328 595 280 595 c 0
 132 595 l 1
68 660 m 1
 280 660 l 0
 365 660 432 578 432 479 c 0
 432 181 l 0
 432 82 365 0 280 0 c 0
 68 0 l 1
 68 660 l 1
EndSplineSet
Validated: 1
EndChar

StartChar: E
Encoding: 69 69 39
Width: 500
VWidth: 0
Flags: W
HStem: 0 65<132 432> 295 65<132 372> 595 65<132 432>
VStem: 68 64<65 295 360 595>
LayerCount: 2
Back
Fore
SplineSet
132 295 m 1
 132 65 l 1
 432 65 l 1
 432 0 l 1
 68 0 l 1
 68 660 l 1
 432 660 l 1
 432 595 l 1
 132 595 l 1
 132 360 l 1
 372 360 l 1
 372 295 l 1
 132 295 l 1
EndSplineSet
Validated: 1
EndChar

StartChar: F
Encoding: 70 70 40
Width: 500
VWidth: 0
Flags: W
HStem: 0 21G<68 132> 295 65<132 372> 595 65<132 432>
VStem: 68 64<0 295 360 595>
LayerCount: 2
Back
Fore
SplineSet
132 0 m 1
 68 0 l 1
 68 660 l 1
 432 660 l 1
 432 595 l 1
 132 595 l 1
 132 360 l 1
 372 360 l 1
 372 295 l 1
 132 295 l 1
 132 0 l 1
EndSplineSet
Validated: 1
EndChar

StartChar: G
Encoding: 71 71 41
Width: 500
VWidth: 0
Flags: W
HStem: 0 65<170.842 330.681> 295 65<218 368> 595 65<170.842 329.434>
VStem: 68 64<106.926 553.074> 368 64<0 33 104.543 295 505 508>
LayerCount: 2
Back
Fore
SplineSet
218 360 m 1
 432 360 l 1
 432 0 l 1
 368 0 l 1
 368 33 l 1
 343 12 313 0 280 0 c 0
 220 0 l 0
 135 0 68 82 68 181 c 0
 68 479 l 0
 68 578 135 660 220 660 c 0
 280 660 l 0
 356 660 418 594 430 508 c 0
 431 505 l 1
 365 505 l 1
 365 507 l 0
 355 558 320 595 280 595 c 0
 220 595 l 0
 172 595 132 544 132 479 c 0
 132 181 l 0
 132 116 172 65 220 65 c 0
 280 65 l 0
 328 65 368 116 368 180 c 0
 368 295 l 1
 218 295 l 1
 218 360 l 1
EndSplineSet
Validated: 1
EndChar

StartChar: H
Encoding: 72 72 42
Width: 500
VWidth: 0
Flags: W
HStem: 0 21G<68 132 368 432> 295 65<132 368> 640 20G<68 132 368 432>
VStem: 68 64<0 295 360 660> 368 64<0 295 360 660>
LayerCount: 2
Back
Fore
SplineSet
68 660 m 1
 132 660 l 1
 132 360 l 1
 368 360 l 1
 368 660 l 1
 432 660 l 1
 432 0 l 1
 368 0 l 1
 368 295 l 1
 132 295 l 1
 132 0 l 1
 68 0 l 1
 68 660 l 1
EndSplineSet
Validated: 1
EndChar

StartChar: I
Encoding: 73 73 43
Width: 500
VWidth: 0
Flags: W
HStem: 0 65<68 218 282 432> 595 65<68 218 282 432>
VStem: 218 64<65 595>
LayerCount: 2
Back
Fore
SplineSet
68 660 m 1
 432 660 l 1
 432 595 l 1
 282 595 l 1
 282 65 l 1
 432 65 l 1
 432 0 l 1
 68 0 l 1
 68 65 l 1
 218 65 l 1
 218 595 l 1
 68 595 l 1
 68 660 l 1
EndSplineSet
Validated: 1
EndChar

StartChar: J
Encoding: 74 74 44
Width: 499
VWidth: 0
Flags: W
HStem: 0 65<168.745 328.158> 640 20G<366 431>
VStem: 366 65<106.926 660>
LayerCount: 2
Back
Fore
SplineSet
68 154 m 1
 134 154 l 1
 134 152 l 0
 144 101 179 65 219 65 c 0
 279 65 l 0
 327 65 366 117 366 182 c 0
 366 660 l 1
 431 660 l 1
 431 181 l 0
 431 82 364 0 279 0 c 0
 219 0 l 0
 144 0 81 66 69 151 c 0
 68 154 l 1
EndSplineSet
Validated: 1
EndChar

StartChar: K
Encoding: 75 75 45
Width: 500
VWidth: 0
Flags: W
HStem: 0 21G<68 132 345 435> 640 20G<68 132 342.123 436>
VStem: 68 64<0 299 391 660>
DStem2: 132 391 183 360 0.644136 0.764911<9.13868 351.98> 183 360 142 310 0.573462 -0.819232<17.4496 395.853>
LayerCount: 2
Back
Fore
SplineSet
436 660 m 1
 183 360 l 1
 435 0 l 1
 359 0 l 1
 142 310 l 1
 132 299 l 1
 132 0 l 1
 68 0 l 1
 68 660 l 1
 132 660 l 1
 132 391 l 1
 359 660 l 1
 436 660 l 1
EndSplineSet
Validated: 1
EndChar

StartChar: L
Encoding: 76 76 46
Width: 500
VWidth: 0
Flags: W
HStem: 0 65<132 432> 640 20G<68 132>
VStem: 68 64<65 660>
LayerCount: 2
Back
Fore
SplineSet
68 660 m 1
 132 660 l 1
 132 65 l 1
 432 65 l 1
 432 0 l 1
 68 0 l 1
 68 660 l 1
EndSplineSet
Validated: 1
EndChar

StartChar: M
Encoding: 77 77 47
Width: 500
VWidth: 0
Flags: W
HStem: 0 21G<38 102 219.459 287.37 398 462> 640 20G<38 102.533 392.647 462>
VStem: 38 64<0 444 652.527 660> 398 64<0 432 633.845 660>
DStem2: 97 660 102 444 0.266655 -0.963792<209.512 573.775> 250 107 282 0 0.258532 0.966003<0 352.214>
LayerCount: 2
Back
Fore
SplineSet
102 0 m 1
 38 0 l 1
 38 660 l 1
 97 660 l 1
 250 107 l 1
 398 660 l 1
 462 660 l 1
 462 0 l 1
 398 0 l 1
 398 432 l 1
 282 0 l 1
 225 0 l 1
 102 444 l 1
 102 0 l 1
EndSplineSet
Validated: 1
EndChar

StartChar: N
Encoding: 78 78 48
Width: 500
VWidth: 0
Flags: W
HStem: 0 21G<68 132 358.727 432> 640 20G<68 141.273 368 432>
VStem: 68 64<0 509> 368 64<151 660>
DStem2: 132 660 132 509 0.42064 -0.907228<136.991 561.05>
LayerCount: 2
Back
Fore
SplineSet
132 660 m 1
 368 151 l 1
 368 660 l 1
 432 660 l 1
 432 0 l 1
 368 0 l 1
 132 509 l 1
 132 0 l 1
 68 0 l 1
 68 660 l 1
 132 660 l 1
EndSplineSet
Validated: 1
EndChar

StartChar: O
Encoding: 79 79 49
Width: 500
VWidth: 0
Flags: W
HStem: 0 65<170.842 329.158> 595 65<170.842 329.158>
VStem: 68 64<106.926 553.074> 368 64<106.926 553.074>
LayerCount: 2
Back
Fore
SplineSet
132 181 m 2
 132 116 172 65 220 65 c 0
 280 65 l 0
 328 65 368 116 368 181 c 0
 368 479 l 0
 368 544 328 595 280 595 c 0
 220 595 l 0
 172 595 132 544 132 479 c 0
 132 181 l 2
68 181 m 2
 68 479 l 0
 68 578 135 660 220 660 c 0
 280 660 l 0
 365 660 432 578 432 479 c 0
 432 181 l 0
 432 82 365 0 280 0 c 0
 220 0 l 0
 135 0 68 82 68 181 c 2
EndSplineSet
Validated: 1
EndChar

StartChar: P
Encoding: 80 80 50
Width: 500
VWidth: 0
Flags: W
HStem: 0 21G<68 132> 295 65<132 338.485> 595 65<132 335.756>
VStem: 68 64<0 295 360 595> 368 64<392.105 563.756>
LayerCount: 2
Back
Fore
SplineSet
280 295 m 2
 132 295 l 1
 132 0 l 1
 68 0 l 1
 68 660 l 1
 280 660 l 0
 364 660 432 592 432 508 c 0
 432 448 l 0
 432 364 364 295 280 295 c 2
280 595 m 2
 132 595 l 1
 132 360 l 1
 282 360 l 0
 330 360 368 399 368 448 c 0
 368 508 l 0
 368 557 329 595 280 595 c 2
EndSplineSet
Validated: 1
EndChar

StartChar: Q
Encoding: 81 81 51
Width: 500
VWidth: 0
Flags: W
HStem: 0 65<158.842 314.388> 595 65<158.842 317.158>
VStem: 56 64<106.926 553.074> 356 64<145.562 553.074>
DStem2: 262 262 210 222 0.602092 -0.798427<0.62827 146.4 238.513 305.431>
LayerCount: 2
Back
Fore
SplineSet
56 181 m 2
 56 479 l 0
 56 578 123 660 208 660 c 0
 268 660 l 0
 353 660 420 578 420 479 c 0
 420 181 l 0
 420 145 411 112 396 84 c 1
 446 18 l 1
 394 -21 l 1
 354 32 l 1
 329 11 300 0 267 0 c 0
 208 0 l 0
 123 0 56 82 56 181 c 2
120 181 m 2
 120 116 160 65 208 65 c 0
 267 65 l 0
 285 65 302 73 315 84 c 1
 210 222 l 1
 262 262 l 1
 350 145 l 1
 354 157 356 168 356 181 c 0
 356 478 l 0
 356 543 316 595 268 595 c 0
 208 595 l 0
 160 595 120 544 120 479 c 0
 120 181 l 2
EndSplineSet
Validated: 1
EndChar

StartChar: R
Encoding: 82 82 52
Width: 500
VWidth: 0
Flags: W
HStem: 0 21G<68 132 368 432> 295 65<132 337.752> 595 65<132 335.756>
VStem: 68 64<0 295 360 595> 368 64<0 265.485 390.248 563.756>
LayerCount: 2
Back
SplineSet
280 600 m 2
 130 600 l 1
 130 360 l 1
 282 360 l 2
 331 360 370 400 370 450 c 2
 370 510 l 2
 370 560 330 600 280 600 c 2
438 0 m 1
 370 0 l 1
 261 300 l 1
 130 300 l 1
 130 0 l 1
 70 0 l 1
 70 660 l 1
 280 660 l 2
 363 660 430 593 430 510 c 2
 430 450 l 2
 430 383 386 326 325 307 c 1
 438 0 l 1
EndSplineSet
Fore
SplineSet
280 595 m 2
 132 595 l 1
 132 360 l 1
 282 360 l 0
 330 360 368 399 368 448 c 0
 368 508 l 0
 368 557 329 595 280 595 c 2
68 660 m 1
 280 660 l 0
 364 660 432 592 432 508 c 0
 432 448 l 0
 432 399 410 355 374 327 c 1
 411 298 432 257 432 209 c 0
 432 0 l 1
 368 0 l 1
 368 209 l 0
 368 257 329 295 280 295 c 0
 132 295 l 1
 132 0 l 1
 68 0 l 1
 68 660 l 1
EndSplineSet
Validated: 1
EndChar

StartChar: S
Encoding: 83 83 53
Width: 500
VWidth: 0
Flags: W
HStem: 0 65<170.842 335.756> 295 65<164.244 335.756> 595 65<164.244 329.158>
VStem: 68 64<106.1 182 392.105 563.756> 368 64<94.9339 265.066 475 552.678>
LayerCount: 2
Back
Fore
SplineSet
432 475 m 1
 368 475 l 1
 368 478 l 0
 368 543 328 595 280 595 c 0
 220 595 l 0
 171 595 132 557 132 508 c 0
 132 448 l 0
 132 399 171 360 220 360 c 0
 280 360 l 0
 364 360 432 293 432 210 c 0
 432 150 l 0
 432 67 364 0 280 0 c 0
 220 0 l 0
 135 0 68 81 68 180 c 0
 68 182 l 1
 132 182 l 1
 132 180 l 0
 132 116 172 65 220 65 c 0
 280 65 l 0
 329 65 368 103 368 151 c 0
 368 209 l 0
 368 257 329 295 280 295 c 0
 220 295 l 0
 136 295 68 364 68 448 c 0
 68 508 l 0
 68 592 136 660 220 660 c 0
 280 660 l 0
 365 660 432 578 432 478 c 0
 432 475 l 1
EndSplineSet
Validated: 1
EndChar

StartChar: T
Encoding: 84 84 54
Width: 500
VWidth: 0
Flags: W
HStem: 0 21G<218 282> 595 65<68 218 282 432>
VStem: 218 64<0 595>
LayerCount: 2
Back
Fore
SplineSet
68 660 m 1
 432 660 l 1
 432 595 l 1
 282 595 l 1
 282 0 l 1
 218 0 l 1
 218 595 l 1
 68 595 l 1
 68 660 l 1
EndSplineSet
Validated: 1
EndChar

StartChar: U
Encoding: 85 85 55
Width: 500
VWidth: 0
Flags: W
HStem: 0 65<170.842 329.158> 640 20G<68 132 368 432>
VStem: 68 64<106.926 660> 368 64<106.926 660>
LayerCount: 2
Back
Fore
SplineSet
432 660 m 1
 432 181 l 0
 432 82 365 0 280 0 c 0
 220 0 l 0
 135 0 68 82 68 181 c 0
 68 660 l 1
 132 660 l 1
 132 182 l 0
 132 117 172 65 220 65 c 0
 280 65 l 0
 328 65 368 117 368 182 c 0
 368 660 l 1
 432 660 l 1
EndSplineSet
Validated: 1
EndChar

StartChar: V
Encoding: 86 86 56
Width: 499
VWidth: 0
Flags: W
HStem: 0 21G<213.424 286.576> 640 20G<67 136.568 365.432 433>
DStem2: 132 660 67 660 0.223025 -0.974813<0 534.417> 251 139 282 0 0.223025 0.974813<0 534.417>
LayerCount: 2
Back
Fore
SplineSet
67 660 m 1
 132 660 l 1
 251 139 l 1
 370 660 l 1
 433 660 l 1
 282 0 l 1
 218 0 l 1
 67 660 l 1
EndSplineSet
Validated: 1
EndChar

StartChar: W
Encoding: 87 87 57
Width: 500
VWidth: 0
Flags: W
HStem: 0 21G<109.788 179.76 320.24 390.212> 640 20G<7 74.6916 215.234 284.766 425.308 493>
VStem: 7 65<616.415 660> 428 65<616.415 660>
DStem2: 144 125 177 0 0.137013 0.990569<0 414.713> 282 660 250 529 0.137013 -0.990569<125.38 540.094>
LayerCount: 2
Back
Fore
SplineSet
282 660 m 1
 356 125 l 1
 428 660 l 1
 493 660 l 1
 387 0 l 1
 323 0 l 1
 250 529 l 1
 177 0 l 1
 113 0 l 1
 7 660 l 1
 72 660 l 1
 144 125 l 1
 218 660 l 1
 282 660 l 1
EndSplineSet
Validated: 1
EndChar

StartChar: X
Encoding: 88 88 58
Width: 500
VWidth: 0
Flags: W
HStem: 0 21G<66 141.147 359.775 434> 640 20G<66 141.147 359.775 434>
DStem2: 132 660 66 660 0.417224 -0.908804<0 283.704 414.572 698.693> 66 0 132 0 0.417224 0.908804<27.5368 311.241 442.108 726.229>
LayerCount: 2
Back
Fore
SplineSet
66 660 m 1
 132 660 l 1
 250 402 l 1
 369 660 l 1
 434 660 l 1
 283 330 l 1
 434 0 l 1
 369 0 l 1
 250 258 l 1
 132 0 l 1
 66 0 l 1
 217 330 l 1
 66 660 l 1
EndSplineSet
Validated: 1
EndChar

StartChar: Y
Encoding: 89 89 59
Width: 499
VWidth: 0
Flags: W
HStem: 0 21G<217 282> 640 20G<66 139.717 365.219 434>
VStem: 217 65<0 270>
DStem2: 132 660 66 660 0.361061 -0.932542<0 333.348> 252 349 282 270 0.363138 0.931735<0 333.709>
LayerCount: 2
Back
Fore
SplineSet
217 270 m 1
 66 660 l 1
 132 660 l 1
 252 349 l 1
 373 660 l 1
 434 660 l 1
 282 270 l 1
 282 0 l 1
 217 0 l 1
 217 270 l 1
EndSplineSet
Validated: 1
EndChar

StartChar: Z
Encoding: 90 90 60
Width: 500
VWidth: 0
Flags: W
HStem: 0 65<149 433> 595 65<68 351>
DStem2: 68 63 149 65 0.470932 0.882169<39.9099 602.588>
LayerCount: 2
Back
Fore
SplineSet
68 595 m 1
 68 660 l 1
 433 660 l 1
 433 597 l 1
 149 65 l 1
 433 65 l 1
 433 0 l 1
 68 0 l 1
 68 63 l 1
 351 595 l 1
 68 595 l 1
EndSplineSet
Validated: 1
EndChar

StartChar: bracketleft
Encoding: 91 91 61
Width: 500
VWidth: 0
Flags: W
HStem: -63 66<222 342> 657 66<222 342>
VStem: 158 184<-63 3 657 723> 158 64<3 657>
LayerCount: 2
Back
Fore
SplineSet
342 723 m 1xe0
 342 657 l 1xe0
 222 657 l 1
 222 3 l 1xd0
 342 3 l 1
 342 -63 l 1
 158 -63 l 1
 158 723 l 1
 342 723 l 1xe0
EndSplineSet
Validated: 1
EndChar

StartChar: backslash
Encoding: 92 92 62
Width: 500
VWidth: 0
Flags: W
HStem: 0 21G<359.818 434> 640 20G<66 141.152>
DStem2: 132 660 66 660 0.417224 -0.908804<0 698.693>
LayerCount: 2
Back
Fore
SplineSet
434 0 m 1
 369 0 l 1
 66 660 l 1
 132 660 l 1
 434 0 l 1
EndSplineSet
Validated: 1
EndChar

StartChar: bracketright
Encoding: 93 93 63
Width: 500
VWidth: 0
Flags: W
HStem: -63 66<158 278> 657 66<158 278>
VStem: 158 184<-63 3 657 723> 278 64<3 657>
LayerCount: 2
Back
Fore
SplineSet
158 723 m 1xe0
 342 723 l 1
 342 -63 l 1
 158 -63 l 1
 158 3 l 1xe0
 278 3 l 1
 278 657 l 1xd0
 158 657 l 1
 158 723 l 1xe0
EndSplineSet
Validated: 1
EndChar

StartChar: asciicircum
Encoding: 94 94 64
Width: 500
VWidth: 0
Flags: W
HStem: 489 172
DStem2: 67 539 100 489 0.83205 0.5547<0 179.446> 250 661 250 588 0.833441 -0.552608<40.3404 219.231>
LayerCount: 2
Back
Fore
SplineSet
250 661 m 1
 434 539 l 1
 399 489 l 1
 250 588 l 1
 100 489 l 1
 67 539 l 1
 250 661 l 1
EndSplineSet
Validated: 1
EndChar

StartChar: underscore
Encoding: 95 95 65
Width: 500
VWidth: 0
Flags: W
HStem: 0 65<68 432>
LayerCount: 2
Back
Fore
SplineSet
68 0 m 1
 68 65 l 1
 432 65 l 1
 432 0 l 1
 68 0 l 1
EndSplineSet
Validated: 1
EndChar

StartChar: grave
Encoding: 96 96 66
Width: 500
VWidth: 0
Flags: W
HStem: 488 173
VStem: 140 219
DStem2: 175 661 140 611 0.834114 -0.551592<0 220.771>
LayerCount: 2
Back
Fore
SplineSet
175 661 m 1
 359 539 l 1
 326 488 l 1
 140 611 l 1
 175 661 l 1
EndSplineSet
Validated: 1
EndChar

StartChar: b
Encoding: 98 98 67
Width: 500
VWidth: 0
Flags: W
HStem: -5 65<170.18 328.938> 415 65<169.319 329.158> 640 20G<68 132>
VStem: 68 64<0 38 103.648 374.887 447 660> 368 64<106.055 373.074>
LayerCount: 2
Back
Fore
SplineSet
432 181 m 2
 432 82 365 -5 280 -5 c 0
 220 -5 l 0
 187 -5 153 12 132 38 c 1
 132 0 l 1
 68 0 l 1
 68 660 l 1
 132 660 l 1
 132 447 l 1
 157 468 187 480 220 480 c 0
 280 480 l 0
 365 480 432 398 432 299 c 0
 432 181 l 2
132 299 m 2
 132 187 l 0
 132 122 166 60 220 60 c 0
 280 60 l 0
 328 60 368 117 368 181 c 0
 368 299 l 0
 368 363 328 415 280 415 c 0
 220 415 l 0
 172 415 132 363 132 299 c 2
EndSplineSet
Validated: 1
EndChar

StartChar: c
Encoding: 99 99 68
Width: 499
VWidth: 0
Flags: W
HStem: 0 65<170.842 327.878> 415 65<170.842 327.878>
VStem: 68 64<106.926 373.074>
LayerCount: 2
Back
Fore
SplineSet
365 154 m 1
 430 154 l 1
 429 151 l 0
 418 66 357 0 280 0 c 0
 220 0 l 0
 135 0 68 82 68 181 c 0
 68 299 l 0
 68 398 135 480 220 480 c 0
 280 480 l 0
 357 480 418 414 429 329 c 0
 430 326 l 1
 365 326 l 1
 364 328 l 0
 354 379 320 415 280 415 c 0
 220 415 l 0
 172 415 132 363 132 299 c 0
 132 181 l 0
 132 117 172 65 220 65 c 0
 280 65 l 0
 320 65 354 101 364 152 c 0
 365 154 l 1
EndSplineSet
Validated: 1
EndChar

StartChar: d
Encoding: 100 100 69
Width: 500
VWidth: 0
Flags: W
HStem: -5 65<171.062 329.176> 415 65<170.842 330.151> 640 20G<368 432>
VStem: 68 64<106.055 373.074> 368 64<0 38 103.648 374.887 447 660>
LayerCount: 2
Back
Fore
SplineSet
68 181 m 2
 68 299 l 0
 68 398 135 480 220 480 c 0
 280 480 l 0
 313 480 344 468 368 447 c 1
 368 660 l 1
 432 660 l 1
 432 0 l 1
 368 0 l 1
 368 38 l 1
 346 11 312 -5 280 -5 c 0
 220 -5 l 0
 135 -5 68 82 68 181 c 2
368 299 m 2
 368 363 328 415 280 415 c 0
 220 415 l 0
 172 415 132 363 132 299 c 0
 132 181 l 0
 132 117 172 60 220 60 c 0
 280 60 l 0
 334 60 368 122 368 187 c 0
 368 299 l 2
EndSplineSet
Validated: 1
EndChar

StartChar: e
Encoding: 101 101 70
Width: 500
VWidth: 0
Flags: W
HStem: 0 65<170.842 330.894> 236 66<133 368> 415 65<170.842 329.158>
VStem: 68 64<106.926 236 302 373.074> 365 65<150 153 302 376.68>
LayerCount: 2
Back
Fore
SplineSet
368 302 m 1
 367 365 327 415 280 415 c 0
 220 415 l 0
 172 415 134 364 133 302 c 1
 368 302 l 1
365 153 m 1
 430 153 l 1
 429 150 l 0
 418 65 357 0 280 0 c 0
 220 0 l 0
 135 0 68 82 68 181 c 0
 68 299 l 0
 68 398 135 480 220 480 c 0
 280 480 l 0
 365 480 432 398 432 298 c 0
 432 236 l 1
 132 236 l 1
 132 180 l 0
 132 116 172 65 220 65 c 0
 280 65 l 0
 320 65 355 101 365 151 c 0
 365 153 l 1
EndSplineSet
Validated: 1
EndChar

StartChar: f
Encoding: 102 102 71
Width: 499
VWidth: 0
Flags: W
HStem: 0 21G<98 164> 356 66<38 98 164 343> 595 65<201.932 361.255>
VStem: 98 66<0 356 422 553.074>
LayerCount: 2
Back
Fore
SplineSet
98 479 m 2
 100 578 166 660 251 660 c 0
 311 660 l 0
 386 660 449 594 461 509 c 0
 462 506 l 1
 396 506 l 1
 395 508 l 0
 385 559 351 595 311 595 c 0
 251 595 l 0
 203 595 166 544 164 479 c 1
 164 422 l 1
 343 422 l 1
 343 356 l 1
 164 356 l 1
 164 0 l 1
 98 0 l 1
 98 356 l 1
 38 356 l 1
 38 422 l 1
 98 422 l 1
 98 479 l 2
EndSplineSet
Validated: 1
EndChar

StartChar: g
Encoding: 103 103 72
Width: 500
VWidth: 0
Flags: W
HStem: -262 65<170.566 329.158> 0 65<170.842 330.681> 415 65<170.842 330.151>
VStem: 68 64<-109 -106 106.926 373.074> 368 64<-154.678 33 105.113 374.887 447 480>
LayerCount: 2
Back
Fore
SplineSet
69 -106 m 1
 135 -106 l 1
 135 -108 l 0
 145 -160 180 -197 220 -197 c 0
 280 -197 l 0
 328 -197 368 -144 368 -78 c 0
 368 33 l 1
 343 12 313 0 280 0 c 0
 220 0 l 0
 135 0 68 82 68 181 c 0
 68 299 l 0
 68 398 135 480 220 480 c 0
 280 480 l 0
 313 480 344 468 368 447 c 1
 368 480 l 1
 432 480 l 1
 432 -80 l 0
 432 -180 365 -262 280 -262 c 0
 220 -262 l 0
 144 -262 82 -195 70 -109 c 0
 69 -106 l 1
132 181 m 2
 132 117 172 65 220 65 c 0
 280 65 l 0
 328 65 368 117 368 181 c 0
 368 299 l 0
 368 363 328 415 280 415 c 0
 220 415 l 0
 172 415 132 363 132 299 c 0
 132 181 l 2
EndSplineSet
Validated: 1
EndChar

StartChar: h
Encoding: 104 104 73
Width: 500
VWidth: 0
Flags: W
HStem: 0 21G<68 132 368 432> 415 65<169.319 329.158> 640 20G<68 132>
VStem: 68 64<0 374.887 447 660> 368 64<0 373.074>
LayerCount: 2
Back
Fore
SplineSet
432 0 m 1
 368 0 l 1
 368 299 l 0
 368 363 328 415 280 415 c 0
 220 415 l 0
 172 415 132 363 132 299 c 0
 132 0 l 1
 68 0 l 1
 68 660 l 1
 132 660 l 1
 132 447 l 1
 157 468 187 480 220 480 c 0
 280 480 l 0
 365 480 432 398 432 299 c 0
 432 0 l 1
EndSplineSet
Validated: 1
EndChar

StartChar: i
Encoding: 105 105 74
Width: 500
VWidth: 0
Flags: W
HStem: 0 65<68 218 282 432> 415 65<68 218> 538 133<202.388 297.612>
VStem: 184 132<555.303 653.243> 218 64<65 415>
LayerCount: 2
Back
Fore
SplineSet
250 671 m 0xf0
 286 671 316 640 316 604 c 0
 316 568 286 538 250 538 c 0
 214 538 184 568 184 604 c 0
 184 640 214 671 250 671 c 0xf0
68 480 m 1
 282 480 l 1
 282 65 l 1
 432 65 l 1
 432 0 l 1
 68 0 l 1
 68 65 l 1
 218 65 l 1
 218 415 l 1xe8
 68 415 l 1
 68 480 l 1
EndSplineSet
Validated: 1
EndChar

StartChar: j
Encoding: 106 106 75
Width: 499
VWidth: 0
Flags: W
HStem: -262 65<98.5656 257.158> 415 65<145 295> 538 133<279.865 375.612>
VStem: 261 133<556.388 652.135> 295 65<-154.678 415>
LayerCount: 2
Back
Fore
SplineSet
328 671 m 0xf0
 364 671 394 640 394 604 c 0
 394 568 364 538 328 538 c 0
 292 538 261 568 261 604 c 0
 261 640 292 671 328 671 c 0xf0
-3 -107 m 1
 63 -107 l 1
 63 -109 l 0
 73 -160 108 -197 148 -197 c 0
 208 -197 l 0
 256 -197 295 -145 295 -80 c 0
 295 415 l 1
 145 415 l 1
 145 480 l 1
 360 480 l 1
 360 -80 l 0xe8
 360 -180 293 -262 208 -262 c 0
 148 -262 l 0
 73 -262 10 -196 -2 -110 c 0
 -3 -107 l 1
EndSplineSet
Validated: 1
EndChar

StartChar: k
Encoding: 107 107 76
Width: 499
VWidth: 0
Flags: W
HStem: 0 21G<62 128 340.811 437> 460 20G<333.714 440> 640 20G<62 128>
VStem: 62 66<0 139 235 660>
DStem2: 128 235 195 212 0.675039 0.737782<0 28.2586 94.1116 331.965> 239 261 195 212 0.604386 -0.796691<12.4449 278.65>
LayerCount: 2
Back
Fore
SplineSet
437 0 m 1
 356 0 l 1
 195 212 l 1
 128 139 l 1
 128 0 l 1
 62 0 l 1
 62 660 l 1
 128 660 l 1
 128 235 l 1
 352 480 l 1
 440 480 l 1
 239 261 l 1
 437 0 l 1
EndSplineSet
Validated: 1
EndChar

StartChar: l
Encoding: 108 108 77
Width: 500
VWidth: 0
Flags: W
HStem: 0 65<68 218 282 432> 595 65<68 218>
VStem: 218 64<65 595>
LayerCount: 2
Back
Fore
SplineSet
68 660 m 1
 282 660 l 1
 282 65 l 1
 432 65 l 1
 432 0 l 1
 68 0 l 1
 68 65 l 1
 218 65 l 1
 218 595 l 1
 68 595 l 1
 68 660 l 1
EndSplineSet
Validated: 1
EndChar

StartChar: m
Encoding: 109 109 78
Width: 500
VWidth: 0
Flags: W
HStem: 0 21G<48 112 218 282 388 452> 415 65<125.133 207.769 296.127 378.896>
VStem: 48 64<0 401.829 460 480> 218 64<0 400.374> 388 64<0 408.225>
CounterMasks: 1 38
LayerCount: 2
Back
Fore
SplineSet
112 460 m 1
 126 473 150 480 170 480 c 0
 204 480 233 464 253 440 c 1
 278 465 308 480 345 480 c 0
 408 480 452 425 452 359 c 0
 452 0 l 1
 388 0 l 1
 388 358 l 0
 388 390 371 415 345 415 c 0
 310 415 282 389 282 358 c 0
 282 0 l 1
 218 0 l 1
 218 358 l 0
 218 390 198 415 170 415 c 0
 138 415 112 389 112 358 c 0
 112 0 l 1
 48 0 l 1
 48 480 l 1
 112 480 l 1
 112 460 l 1
EndSplineSet
Validated: 1
EndChar

StartChar: n
Encoding: 110 110 79
Width: 500
VWidth: 0
Flags: W
HStem: 0 21G<68 132 368 432> 420 65<171.062 328.938>
VStem: 68 64<0 377.443 439 480> 368 64<0 373.945>
LayerCount: 2
Back
Fore
SplineSet
432 0 m 1
 368 0 l 1
 368 299 l 0
 368 364 328 420 280 420 c 0
 220 420 l 0
 172 420 132 364 132 299 c 0
 132 0 l 1
 68 0 l 1
 68 480 l 1
 132 480 l 1
 132 439 l 1
 150 465 188 485 220 485 c 0
 280 485 l 0
 365 485 432 398 432 299 c 0
 432 0 l 1
EndSplineSet
Validated: 1
EndChar

StartChar: o
Encoding: 111 111 80
Width: 500
VWidth: 0
Flags: W
HStem: 0 65<170.842 329.158> 415 65<170.842 329.158>
VStem: 68 64<106.926 373.074> 368 64<106.926 373.074>
LayerCount: 2
Back
Fore
SplineSet
132 181 m 2
 132 117 172 65 220 65 c 0
 280 65 l 0
 328 65 368 117 368 181 c 0
 368 299 l 0
 368 363 328 415 280 415 c 0
 220 415 l 0
 172 415 132 363 132 299 c 0
 132 181 l 2
432 181 m 2
 432 82 365 0 280 0 c 0
 220 0 l 0
 135 0 68 82 68 181 c 0
 68 299 l 0
 68 398 135 480 220 480 c 0
 280 480 l 0
 365 480 432 398 432 299 c 0
 432 181 l 2
EndSplineSet
Validated: 1
EndChar

StartChar: p
Encoding: 112 112 81
Width: 500
VWidth: 0
Flags: W
HStem: 0 65<169.849 329.158> 420 65<170.824 328.938>
VStem: 68 64<-262 33 105.113 376.352 442 480> 368 64<106.926 373.945>
LayerCount: 2
Back
Fore
SplineSet
432 299 m 2
 432 181 l 0
 432 82 365 0 280 0 c 0
 220 0 l 0
 187 0 156 12 132 33 c 1
 132 -262 l 1
 68 -262 l 1
 68 480 l 1
 132 480 l 1
 132 442 l 1
 154 469 188 485 220 485 c 0
 280 485 l 0
 365 485 432 398 432 299 c 2
132 181 m 2
 132 117 172 65 220 65 c 0
 280 65 l 0
 328 65 368 117 368 181 c 0
 368 299 l 0
 368 363 328 420 280 420 c 0
 220 420 l 0
 166 420 132 358 132 293 c 0
 132 181 l 2
EndSplineSet
Validated: 1
EndChar

StartChar: q
Encoding: 113 113 82
Width: 500
VWidth: 0
Flags: W
HStem: 0 65<170.842 330.681> 420 65<171.062 329.82>
VStem: 68 64<106.926 373.945> 368 64<-262 33 105.113 376.352 442 480>
LayerCount: 2
Back
Fore
SplineSet
68 299 m 2
 68 398 135 485 220 485 c 0
 280 485 l 0
 313 485 347 468 368 442 c 1
 368 480 l 1
 432 480 l 1
 432 -262 l 1
 368 -262 l 1
 368 33 l 1
 343 12 313 0 280 0 c 0
 220 0 l 0
 135 0 68 82 68 181 c 0
 68 299 l 2
368 181 m 2
 368 293 l 0
 368 358 334 420 280 420 c 0
 220 420 l 0
 172 420 132 363 132 299 c 0
 132 181 l 0
 132 117 172 65 220 65 c 0
 280 65 l 0
 328 65 368 117 368 181 c 2
EndSplineSet
Validated: 1
EndChar

StartChar: r
Encoding: 114 114 83
Width: 500
VWidth: 0
Flags: W
HStem: 0 21G<72 136> 420 65<199.159 336.767>
VStem: 72 64<0 342.656 409 480>
LayerCount: 2
Back
Fore
SplineSet
360 357 m 2
 345 395 328 420 299 420 c 0
 254 420 l 0
 192 420 136 344 136 240 c 0
 136 0 l 1
 72 0 l 1
 72 480 l 1
 136 480 l 1
 136 409 l 1
 155 439 196 485 254 485 c 0
 299 485 l 0
 366 485 408 430 429 359 c 0
 430 356 l 1
 360 356 l 1
 360 357 l 2
EndSplineSet
Validated: 1
EndChar

StartChar: s
Encoding: 115 115 84
Width: 500
VWidth: 0
Flags: W
HStem: 0 65<157.388 335.125> 207 66<165.375 342.75> 415 65<170.264 329.943>
VStem: 78 65<295.69 388.072> 368 65<95.327 183.208>
CounterMasks: 1 e0
LayerCount: 2
Back
Fore
SplineSet
63 123 m 1
 132 123 l 1
 132 122 l 0
 148 88 176 65 208 65 c 0
 255 65 l 0
 318 65 368 98 368 136 c 0
 368 180 329 207 280 207 c 0
 220 207 l 0
 142 207 78 268 78 343 c 0
 78 419 148 480 235 480 c 0
 280 480 l 0
 347 480 403 429 424 359 c 0
 424 356 l 1
 357 356 l 1
 356 357 l 0
 340 392 312 415 280 415 c 0
 235 415 l 0
 184 415 143 383 143 344 c 0
 143 305 177 273 220 273 c 0
 280 273 l 0
 364 273 433 217 433 136 c 0
 433 60 353 0 255 0 c 0
 208 0 l 0
 141 0 85 50 64 120 c 0
 63 123 l 1
EndSplineSet
Validated: 1
EndChar

StartChar: t
Encoding: 116 116 85
Width: 499
VWidth: 0
Flags: W
HStem: 0 65<201.735 361.255> 415 65<38 98 164 343> 640 20G<98 164>
VStem: 98 66<106.1 415 480 660>
LayerCount: 2
Back
Fore
SplineSet
164 181 m 2
 164 117 203 65 251 65 c 0
 311 65 l 0
 351 65 385 101 395 152 c 0
 396 154 l 1
 462 154 l 1
 461 151 l 0
 449 66 386 0 311 0 c 0
 251 0 l 0
 166 0 98 81 98 180 c 0
 98 415 l 1
 38 415 l 1
 38 480 l 1
 98 480 l 1
 98 660 l 1
 164 660 l 1
 164 480 l 1
 343 480 l 1
 343 415 l 1
 164 415 l 1
 164 181 l 2
EndSplineSet
Validated: 1
EndChar

StartChar: u
Encoding: 117 117 86
Width: 500
VWidth: 0
Flags: W
HStem: 0 65<170.842 330.681> 460 20G<68 132 368 432>
VStem: 68 64<106.926 480> 368 64<0 33 105.113 480>
LayerCount: 2
Back
Fore
SplineSet
368 480 m 1
 432 480 l 1
 432 0 l 1
 368 0 l 1
 368 33 l 1
 343 12 313 0 280 0 c 0
 220 0 l 0
 135 0 68 82 68 181 c 0
 68 480 l 1
 132 480 l 1
 132 181 l 0
 132 117 172 65 220 65 c 0
 280 65 l 0
 328 65 368 117 368 181 c 0
 368 480 l 1
EndSplineSet
Validated: 1
EndChar

StartChar: v
Encoding: 118 118 87
Width: 500
VWidth: 0
Flags: W
HStem: 0 21G<211.708 288.333> 460 20G<67 138.293 362.653 434>
DStem2: 132 480 67 480 0.300085 -0.953912<0 393.127> 250 105 282 0 0.301892 0.953342<0 393.428>
LayerCount: 2
Back
Fore
SplineSet
67 480 m 1
 132 480 l 1
 250 105 l 1
 369 480 l 1
 434 480 l 1
 282 0 l 1
 218 0 l 1
 67 480 l 1
EndSplineSet
Validated: 1
EndChar

StartChar: w
Encoding: 119 119 88
Width: 499
VWidth: 0
Flags: W
HStem: 0 21G<108.583 181.124 319.819 391.417> 460 20G<7 76.4118 213.824 286.157 430.562 493>
DStem2: 72 480 7 480 0.215638 -0.976473<0 348.174> 147 140 177 0 0.201965 0.979393<0 230.392> 282 480 250 354 0.203515 -0.979072<116.851 363.61> 356 124 387 0 0.215638 0.976473<0 364.66>
LayerCount: 2
Back
Fore
SplineSet
282 480 m 1
 356 124 l 1
 435 480 l 1
 493 480 l 1
 387 0 l 1
 324 0 l 1
 250 354 l 1
 177 0 l 1
 113 0 l 1
 7 480 l 1
 72 480 l 1
 147 140 l 1
 218 480 l 1
 282 480 l 1
EndSplineSet
Validated: 1
EndChar

StartChar: y
Encoding: 121 121 89
Width: 500
VWidth: 0
Flags: W
HStem: -202 65<68 166.318> 460 20G<66 138.912 361.541 433>
DStem2: 132 480 66 480 0.328764 -0.944412<0 373.487> 188 -79 252 -81 0.307052 0.951693<-61.7725 113.53 216.314 587.266>
LayerCount: 2
Back
Fore
SplineSet
68 -137 m 1
 130 -137 l 0
 151 -137 177 -114 188 -79 c 1
 223 29 l 1
 66 480 l 1
 132 480 l 1
 254 127 l 1
 368 480 l 1
 433 480 l 1
 252 -81 l 0
 229 -152 184 -202 130 -202 c 0
 68 -202 l 1
 68 -137 l 1
EndSplineSet
Validated: 1
EndChar

StartChar: z
Encoding: 122 122 90
Width: 501
VWidth: 0
Flags: W
HStem: 0 65<151 434> 415 65<68 351>
DStem2: 68 63 151 65 0.626583 0.779354<53.5651 451.656>
LayerCount: 2
Back
Fore
SplineSet
68 415 m 1
 68 480 l 1
 434 480 l 1
 434 417 l 1
 151 65 l 1
 434 65 l 1
 434 0 l 1
 68 0 l 1
 68 63 l 1
 351 415 l 1
 68 415 l 1
EndSplineSet
Validated: 1
EndChar

StartChar: braceleft
Encoding: 123 123 91
Width: 500
VWidth: 0
Flags: W
HStem: -62 65<324.237 418> 295 65<82 186.005> 658 65<324.237 418>
VStem: 232 66<29.3342 234.33 422.32 629.867>
LayerCount: 2
Back
Fore
SplineSet
82 360 m 1
 145 360 l 0
 192 360 232 439 232 539 c 0
 232 639 287 723 355 723 c 0
 418 723 l 1
 418 658 l 1
 355 658 l 0
 325 658 299 606 298 539 c 0
 297 448 266 371 221 328 c 1
 267 286 297 208 298 119 c 0
 299 53 325 3 355 3 c 0
 418 3 l 1
 418 -62 l 1
 355 -62 l 0
 287 -62 232 20 232 119 c 0
 232 217 192 295 145 295 c 0
 82 295 l 1
 82 360 l 1
EndSplineSet
Validated: 1
EndChar

StartChar: bar
Encoding: 124 124 92
Width: 500
VWidth: 0
Flags: W
HStem: 0 21G<218 282> 640 20G<218 282>
VStem: 218 64<0 660>
LayerCount: 2
Back
Fore
SplineSet
218 660 m 1
 282 660 l 1
 282 0 l 1
 218 0 l 1
 218 660 l 1
EndSplineSet
Validated: 1
EndChar

StartChar: braceright
Encoding: 125 125 93
Width: 500
VWidth: 0
Flags: W
HStem: -62 65<82 175.763> 295 65<313.995 418> 658 65<82 175.763>
VStem: 202 66<29.3342 234.503 422.32 629.867>
LayerCount: 2
Back
Fore
SplineSet
418 360 m 1
 418 295 l 1
 355 295 l 0
 308 295 268 217 268 119 c 0
 268 20 213 -62 145 -62 c 0
 82 -62 l 1
 82 3 l 1
 145 3 l 0
 175 3 201 53 202 119 c 0
 203 209 234 286 279 328 c 1
 233 371 203 448 202 539 c 0
 201 606 175 658 145 658 c 0
 82 658 l 1
 82 723 l 1
 145 723 l 0
 213 723 268 639 268 539 c 0
 268 439 308 360 355 360 c 0
 418 360 l 1
EndSplineSet
Validated: 1
EndChar

StartChar: asciitilde
Encoding: 126 126 94
Width: 499
VWidth: 0
Flags: W
HStem: 199 65<274.831 358.036> 295 65<112.265 196.314>
LayerCount: 2
Back
Fore
SplineSet
310 199 m 0
 235 199 210 295 150 295 c 0
 102 295 71 197 71 196 c 0
 71 193 l 1
 12 220 l 1
 13 222 l 0
 43 306 79 360 159 360 c 0
 241 360 260 264 319 264 c 0
 367 264 403 362 403 363 c 0
 404 366 l 1
 462 339 l 1
 461 337 l 0
 431 253 385 199 310 199 c 0
EndSplineSet
Validated: 1
EndChar
